<?xml version="1.0" encoding="iso-8859-1"?>
<!-- Generator: Adobe Illustrator 19.0.0, SVG Export Plug-In . SVG Version: 6.00 Build 0)  -->
<svg version="1.1" id="Capa_1" xmlns="http://www.w3.org/2000/svg" xmlns:xlink="http://www.w3.org/1999/xlink" x="0px" y="0px"
	 viewBox="0 0 750 750" style="enable-background:new 0 0 750 750;" xml:space="preserve">
<g>
	<g>
		<path d="M496,16c-8.832,0-16,7.168-16,16v288c0,61.76-50.24,112-112,112h-80v-16c0-8.832-7.168-16-16-16h-96
			c-8.832,0-16,7.168-16,16v64c0,8.832,7.168,16,16,16h96c8.832,0,16-7.168,16-16v-16h80c79.392,0,144-64.608,144-144V32
			C512,23.168,504.832,16,496,16z"/>
	</g>
</g>
<g>
	<g>
		<path d="M320,112H128C57.408,112,0,169.408,0,240s57.408,128,128,128c15.552,0,31.2-2.944,45.248-8.512
			c2.048-0.8,3.872-1.984,5.408-3.552L224,310.624l45.344,45.312c1.536,1.568,3.392,2.752,5.408,3.552
			C288.8,365.056,304.48,368,320,368c70.592,0,128-57.408,128-128S390.592,112,320,112z"/>
	</g>
</g>
<g>
</g>
<g>
</g>
<g>
</g>
<g>
</g>
<g>
</g>
<g>
</g>
<g>
</g>
<g>
</g>
<g>
</g>
<g>
</g>
<g>
</g>
<g>
</g>
<g>
</g>
<g>
</g>
<g>
</g>
</svg>
