<?xml version="1.0" encoding="iso-8859-1"?>
<!-- Generator: Adobe Illustrator 19.0.0, SVG Export Plug-In . SVG Version: 6.00 Build 0)  -->
<svg version="1.1" id="Capa_1" xmlns="http://www.w3.org/2000/svg" xmlns:xlink="http://www.w3.org/1999/xlink" x="0px" y="0px"
	 viewBox="0 0 750 750" style="enable-background:new 0 0 512 512;" xml:space="preserve">
<g>
	<g>
		<path d="M496,16c-8.832,0-16,7.168-16,16v288c0,61.76-50.24,112-112,112h-80v-16c0-8.832-7.168-16-16-16h-96
			c-8.832,0-16,7.168-16,16v64c0,8.832,7.168,16,16,16h96c8.832,0,16-7.168,16-16v-16h80c79.392,0,144-64.608,144-144V32
			C512,23.168,504.832,16,496,16z M256,464h-64v-32h64V464z"/>
	</g>
</g>
<g>
	<g>
		<path d="M320,112H128C57.408,112,0,169.408,0,240s57.408,128,128,128c15.52,0,31.2-2.944,45.248-8.48
			c2.016-0.8,3.904-2.016,5.44-3.584L224,310.624l45.344,45.344c1.536,1.536,3.392,2.752,5.44,3.584
			C288.8,365.056,304.48,368,320,368c70.592,0,128-57.408,128-128S390.592,112,320,112z M320,336c-10.464,0-20.928-1.76-30.496-5.12
			l-54.176-54.208c-6.24-6.24-16.384-6.24-22.624,0l-54.208,54.208C148.928,334.24,138.464,336,128,336c-52.928,0-96-43.072-96-96
			c0-52.928,43.072-96,96-96h192c52.928,0,96,43.072,96,96C416,292.928,372.928,336,320,336z"/>
	</g>
</g>
<g>
</g>
<g>
</g>
<g>
</g>
<g>
</g>
<g>
</g>
<g>
</g>
<g>
</g>
<g>
</g>
<g>
</g>
<g>
</g>
<g>
</g>
<g>
</g>
<g>
</g>
<g>
</g>
<g>
</g>
</svg>
