<svg xmlns="http://www.w3.org/2000/svg" viewBox="0 0 187.9 32.43"><defs><style>.cls-1{fill:#00b5e2;}</style></defs><title>ETSIT_1</title><g id="Capa_2" data-name="Capa 2"><g id="Capa_1-2" data-name="Capa 1"><path class="cls-1" d="M44.14.5H48.6V1.55H45.47v2H48v1H45.47V6.6h3.3V7.65H44.14Z"/><path class="cls-1" d="M49.48,6h1.14c.06.53.33.84,1,.84s.93-.23.93-.67-.34-.59-1.11-.72c-1.38-.22-1.89-.61-1.89-1.59s1-1.57,2-1.57,1.91.4,2,1.58H52.48a.81.81,0,0,0-.93-.7c-.52,0-.83.25-.83.62s.25.53,1.08.67c1.22.19,2,.49,2,1.6S53,7.75,51.67,7.75,49.53,7.13,49.48,6Z"/><path class="cls-1" d="M54.47,5.1V5a2.58,2.58,0,0,1,2.64-2.71,2.13,2.13,0,0,1,2.38,2H58.32a1.07,1.07,0,0,0-1.19-1c-.83,0-1.42.64-1.42,1.72v.08c0,1.14.56,1.74,1.45,1.74A1.2,1.2,0,0,0,58.42,5.7h1.1a2.21,2.21,0,0,1-2.41,2.05A2.5,2.5,0,0,1,54.47,5.1Z"/><path class="cls-1" d="M60.52,5.77V2.42h1.21V5.63c0,.79.33,1.15,1,1.15A1.16,1.16,0,0,0,64,5.53V2.42h1.21V7.65H64V6.83a1.75,1.75,0,0,1-1.65.92C61.29,7.75,60.52,7.16,60.52,5.77Z"/><path class="cls-1" d="M66.27,5.09V5a2.54,2.54,0,0,1,2.6-2.7A2.36,2.36,0,0,1,71.33,5V5.3H67.51c0,1,.54,1.55,1.44,1.55.72,0,1.1-.29,1.19-.8h1.17c-.17,1.1-1.06,1.7-2.39,1.7A2.51,2.51,0,0,1,66.27,5.09Zm3.86-.6c-.06-.9-.52-1.3-1.26-1.3a1.34,1.34,0,0,0-1.34,1.3Z"/><path class="cls-1" d="M72.45,0h1.21V7.65H72.45Z"/><path class="cls-1" d="M74.75,6.2c0-1.22,1.18-1.66,2.68-1.66h.65V4.27c0-.7-.24-1-1-1a.87.87,0,0,0-1,.82H75c.1-1.22,1.07-1.73,2.24-1.73s2.08.48,2.08,1.91V7.65H78.09V7a1.79,1.79,0,0,1-1.59.74C75.54,7.75,74.75,7.29,74.75,6.2Zm3.33-.38V5.3h-.62c-.92,0-1.51.21-1.51.85,0,.44.24.73.84.73S78.08,6.49,78.08,5.82Z"/><path class="cls-1" d="M45.57,13.05h-2V12h5.31v1.05h-2v6.1H45.57Z"/><path class="cls-1" d="M48.77,16.59v-.08a2.54,2.54,0,0,1,2.6-2.7,2.35,2.35,0,0,1,2.46,2.64v.35H50c0,1,.54,1.55,1.44,1.55.72,0,1.1-.29,1.19-.8h1.17c-.17,1.1-1.05,1.7-2.39,1.7A2.51,2.51,0,0,1,48.77,16.59Zm3.86-.6c-.05-.9-.51-1.3-1.26-1.3A1.34,1.34,0,0,0,50,16Zm-1.19-4.4h1.33l-1,1.55h-.89Z"/><path class="cls-1" d="M54.57,16.6v-.08a2.58,2.58,0,0,1,2.64-2.71,2.13,2.13,0,0,1,2.38,2H58.42a1.06,1.06,0,0,0-1.19-1c-.83,0-1.42.64-1.42,1.72v.08c0,1.14.56,1.74,1.45,1.74a1.19,1.19,0,0,0,1.25-1.12h1.11a2.21,2.21,0,0,1-2.41,2.05A2.5,2.5,0,0,1,54.57,16.6Z"/><path class="cls-1" d="M60.67,13.92h1.21v.83a1.8,1.8,0,0,1,1.69-.94c1,0,1.78.61,1.78,2v3.29H64.14V16c0-.79-.31-1.15-1-1.15a1.16,1.16,0,0,0-1.23,1.25v3.08H60.67Z"/><path class="cls-1" d="M66.65,12.37a.72.72,0,1,1,.72.69A.7.7,0,0,1,66.65,12.37Zm.13,1.55H68v5.23H66.78Z"/><path class="cls-1" d="M69.11,16.6v-.08a2.58,2.58,0,0,1,2.64-2.71,2.13,2.13,0,0,1,2.38,2H73a1.08,1.08,0,0,0-1.2-1c-.82,0-1.41.64-1.41,1.72v.08c0,1.14.56,1.74,1.45,1.74a1.19,1.19,0,0,0,1.25-1.12h1.11a2.21,2.21,0,0,1-2.41,2.05A2.5,2.5,0,0,1,69.11,16.6Z"/><path class="cls-1" d="M74.83,17.7C74.83,16.48,76,16,77.51,16h.64v-.27c0-.7-.23-1-.94-1a.87.87,0,0,0-1,.82H75c.1-1.22,1.07-1.73,2.24-1.73s2.08.48,2.08,1.91v3.43H78.17v-.64a1.79,1.79,0,0,1-1.59.74C75.62,19.25,74.83,18.79,74.83,17.7Zm3.32-.38V16.8h-.61c-.92,0-1.51.21-1.51.85,0,.44.24.73.84.73S78.15,18,78.15,17.32Z"/><path class="cls-1" d="M43.7,28.43H45c.09.72.38,1.32,1.59,1.32.78,0,1.35-.44,1.35-1.1s-.33-.91-1.49-1.1c-1.71-.23-2.52-.75-2.52-2.09a2.21,2.21,0,0,1,2.49-2.05c1.53,0,2.45.7,2.59,2.07H47.77a1.19,1.19,0,0,0-1.37-1.07c-.81,0-1.23.39-1.23.94s.24.87,1.48,1c1.67.23,2.54.71,2.54,2.14a2.35,2.35,0,0,1-2.62,2.21C44.62,30.75,43.8,29.78,43.7,28.43Z"/><path class="cls-1" d="M50.29,28.77V25.42H51.5v3.21c0,.79.33,1.15,1,1.15a1.17,1.17,0,0,0,1.22-1.25V25.42H55v5.23h-1.2v-.82a1.77,1.77,0,0,1-1.66.92C51.06,30.75,50.29,30.16,50.29,28.77Z"/><path class="cls-1" d="M56.39,25.42H57.6v.84a2,2,0,0,1,1.71-1A2.36,2.36,0,0,1,61.62,28v.08c0,1.68-1,2.7-2.31,2.7a1.89,1.89,0,0,1-1.71-.92v2.6H56.39Zm4,2.65V28c0-1.16-.59-1.73-1.38-1.73s-1.44.57-1.44,1.73v.08c0,1.17.57,1.72,1.45,1.72S60.38,29.19,60.38,28.07Z"/><path class="cls-1" d="M62.37,28.09V28a2.54,2.54,0,0,1,2.6-2.7A2.36,2.36,0,0,1,67.43,28v.35H63.61c0,1,.54,1.55,1.44,1.55.73,0,1.11-.29,1.2-.8h1.16c-.17,1.1-1.06,1.7-2.39,1.7A2.51,2.51,0,0,1,62.37,28.09Zm3.87-.6c-.07-.9-.53-1.3-1.27-1.3a1.34,1.34,0,0,0-1.34,1.3Z"/><path class="cls-1" d="M68.52,25.42h1.21v1a1.74,1.74,0,0,1,1.69-1.06v1.13c-1,0-1.69.35-1.69,1.46v2.72H68.52Z"/><path class="cls-1" d="M72.39,23.87a.72.72,0,1,1,.72.69A.7.7,0,0,1,72.39,23.87Zm.13,1.55h1.21v5.23H72.52Z"/><path class="cls-1" d="M74.85,28.09V28a2.68,2.68,0,1,1,5.36,0v.08a2.68,2.68,0,0,1-5.36,0Zm4.12,0V28c0-1.08-.54-1.74-1.43-1.74s-1.45.65-1.45,1.73v.08c0,1.07.53,1.74,1.45,1.74S79,29.14,79,28.07Z"/><path class="cls-1" d="M81.31,25.42h1.21v1a1.74,1.74,0,0,1,1.69-1.06v1.13c-1,0-1.69.35-1.69,1.46v2.72H81.31Z"/><path class="cls-1" d="M99.11,12h2.07v7.15H99.11Z"/><path class="cls-1" d="M102.43,13.92h1.79v.84a1.85,1.85,0,0,1,1.72-1c1,0,1.71.63,1.71,2v3.4h-1.79v-3c0-.59-.23-.88-.75-.88s-.89.32-.89,1v2.93h-1.79Z"/><path class="cls-1" d="M108.38,19.15h1.78c.08.38.31.68,1,.68a1,1,0,0,0,1.11-1.1v-.8a1.83,1.83,0,0,1-1.62,1,2.25,2.25,0,0,1-2.22-2.51V16.3a2.29,2.29,0,0,1,2.22-2.52,1.7,1.7,0,0,1,1.62.88v-.74H114v4.79c0,1.55-1,2.37-2.9,2.37S108.52,20.33,108.38,19.15Zm3.9-2.78V16.3c0-.72-.37-1.18-1-1.18s-1,.47-1,1.19v.08c0,.72.38,1.18,1,1.18S112.28,17.11,112.28,16.37Z"/><path class="cls-1" d="M114.8,16.6v-.08a2.68,2.68,0,0,1,2.83-2.74,2.48,2.48,0,0,1,2.66,2.7V17h-3.68A1,1,0,0,0,117.7,18c.59,0,.84-.27.91-.62h1.68c-.16,1.18-1.07,1.85-2.65,1.85A2.58,2.58,0,0,1,114.8,16.6Zm3.75-.66c0-.63-.34-1-.92-1a1,1,0,0,0-1,1Z"/><path class="cls-1" d="M121.06,13.92h1.79v.84a1.85,1.85,0,0,1,1.72-1c1,0,1.71.63,1.71,2v3.4h-1.79v-3c0-.59-.23-.88-.75-.88s-.89.32-.89,1v2.93h-1.79Z"/><path class="cls-1" d="M127.26,12.5a1,1,0,1,1,1,.92A.93.93,0,0,1,127.26,12.5Zm.09,1.42h1.79v5.23h-1.79Z"/><path class="cls-1" d="M130,16.6v-.08a2.68,2.68,0,0,1,2.83-2.74,2.48,2.48,0,0,1,2.66,2.7V17h-3.68A1,1,0,0,0,132.87,18c.59,0,.84-.27.91-.62h1.68c-.16,1.18-1.07,1.85-2.65,1.85A2.58,2.58,0,0,1,130,16.6Zm3.75-.66c0-.63-.34-1-.92-1a1,1,0,0,0-1,1Z"/><path class="cls-1" d="M136.23,13.92H138v1a1.65,1.65,0,0,1,1.69-1.11v1.67c-1.09,0-1.69.31-1.69,1.15v2.48h-1.79Z"/><path class="cls-1" d="M140.56,13.92h1.79v5.23h-1.79Zm.74-2.26h1.8l-1,1.66h-1.28Z"/><path class="cls-1" d="M143.16,17.7c0-1.23,1-1.71,2.78-1.71h.5v-.12c0-.5-.12-.83-.69-.83a.64.64,0,0,0-.71.62h-1.68c.08-1.26,1.07-1.88,2.5-1.88s2.36.59,2.36,2v3.39h-1.74v-.61a1.72,1.72,0,0,1-1.55.73A1.56,1.56,0,0,1,143.16,17.7Zm3.28-.38V17H146c-.72,0-1,.14-1,.57s.2.49.62.49A.79.79,0,0,0,146.44,17.32Z"/><path class="cls-1" d="M151,16.59v-.08c0-1.78,1-2.73,2.22-2.73a1.7,1.7,0,0,1,1.61.88v-3h1.79v7.53h-1.79V18.3a1.76,1.76,0,0,1-1.63,1C151.94,19.27,151,18.4,151,16.59Zm3.88,0v-.08c0-.88-.37-1.35-1-1.35s-1,.45-1,1.36v.08c0,.88.39,1.33,1,1.33S154.83,17.45,154.83,16.56Z"/><path class="cls-1" d="M157.35,16.6v-.08a2.68,2.68,0,0,1,2.83-2.74,2.48,2.48,0,0,1,2.66,2.7V17h-3.68A1,1,0,0,0,160.25,18c.59,0,.84-.27.91-.62h1.68c-.16,1.18-1.07,1.85-2.65,1.85A2.58,2.58,0,0,1,157.35,16.6Zm3.75-.66c0-.63-.34-1-.92-1a1,1,0,0,0-1,1Z"/><path class="cls-1" d="M100.44,25.08H98.59V23.5h5.76v1.58H102.5v5.57h-2.06Z"/><path class="cls-1" d="M104.07,28.1V28a2.67,2.67,0,0,1,2.82-2.74,2.48,2.48,0,0,1,2.66,2.7v.47h-3.68A1,1,0,0,0,107,29.54c.59,0,.84-.27.91-.62h1.68c-.16,1.18-1.07,1.85-2.65,1.85A2.57,2.57,0,0,1,104.07,28.1Zm3.74-.66c0-.63-.34-1-.92-1a1,1,0,0,0-1,1Z"/><path class="cls-1" d="M110.37,23.12h1.78v7.53h-1.78Z"/><path class="cls-1" d="M113,28.1V28a2.68,2.68,0,0,1,2.83-2.74,2.48,2.48,0,0,1,2.66,2.7v.47h-3.68a1,1,0,0,0,1.09,1.09c.59,0,.84-.27.91-.62h1.68c-.16,1.18-1.07,1.85-2.65,1.85A2.58,2.58,0,0,1,113,28.1Zm3.75-.66c0-.63-.34-1-.92-1a1,1,0,0,0-1,1Z"/><path class="cls-1" d="M119,28.1V28a2.63,2.63,0,0,1,2.79-2.74,2.25,2.25,0,0,1,2.56,2.15h-1.68a.77.77,0,0,0-.84-.76c-.63,0-1,.45-1,1.33v.08c0,.91.35,1.38,1,1.38a.87.87,0,0,0,.91-.87h1.61c0,1.32-.94,2.18-2.63,2.18A2.52,2.52,0,0,1,119,28.1Z"/><path class="cls-1" d="M124.79,28.1V28a2.69,2.69,0,0,1,2.87-2.74A2.65,2.65,0,0,1,130.51,28v.08a2.66,2.66,0,0,1-2.86,2.72A2.62,2.62,0,0,1,124.79,28.1Zm3.9,0V28c0-.88-.35-1.37-1-1.37s-1,.47-1,1.35v.08c0,.9.35,1.39,1,1.39S128.69,28.94,128.69,28.07Z"/><path class="cls-1" d="M131.29,25.42h1.79v.8a1.83,1.83,0,0,1,1.64-.94,1.42,1.42,0,0,1,1.42.87,2.07,2.07,0,0,1,1.73-.87c1,0,1.71.64,1.71,1.95v3.42h-1.79V27.53c0-.53-.26-.79-.67-.79a.78.78,0,0,0-.8.88v3h-1.77V27.53c0-.53-.26-.79-.67-.79a.78.78,0,0,0-.8.88v3h-1.79Z"/><path class="cls-1" d="M140.56,28.83V25.42h1.79v3.12c0,.59.23.88.74.88s.89-.32.89-1v-3h1.79v5.23H144v-.81a1.72,1.72,0,0,1-1.66.93A1.7,1.7,0,0,1,140.56,28.83Z"/><path class="cls-1" d="M146.83,25.42h1.79v.84a1.85,1.85,0,0,1,1.72-1c1,0,1.71.63,1.71,2v3.4h-1.79v-3c0-.59-.23-.88-.75-.88s-.89.32-.89,1v2.93h-1.79Z"/><path class="cls-1" d="M153,24a1,1,0,1,1,1,.92A.93.93,0,0,1,153,24Zm.09,1.42h1.79v5.23h-1.79Z"/><path class="cls-1" d="M155.74,28.1V28a2.63,2.63,0,0,1,2.79-2.74,2.25,2.25,0,0,1,2.56,2.15h-1.68a.77.77,0,0,0-.84-.76c-.63,0-1,.45-1,1.33v.08c0,.91.35,1.38,1,1.38a.87.87,0,0,0,.91-.87h1.61c-.05,1.32-.94,2.18-2.63,2.18A2.52,2.52,0,0,1,155.74,28.1Z"/><path class="cls-1" d="M161.6,29.2c0-1.23,1-1.71,2.78-1.71h.5v-.12c0-.5-.12-.83-.69-.83a.64.64,0,0,0-.71.62H161.8c.08-1.26,1.07-1.88,2.5-1.88s2.36.59,2.36,2v3.39h-1.74V30a1.72,1.72,0,0,1-1.55.73A1.56,1.56,0,0,1,161.6,29.2Zm3.28-.38V28.5h-.47c-.72,0-1,.14-1,.57s.2.49.62.49A.79.79,0,0,0,164.88,28.82Z"/><path class="cls-1" d="M167.4,28.1V28a2.63,2.63,0,0,1,2.79-2.74,2.25,2.25,0,0,1,2.56,2.15h-1.68a.77.77,0,0,0-.84-.76c-.63,0-1,.45-1,1.33v.08c0,.91.35,1.38,1,1.38a.87.87,0,0,0,.91-.87h1.61c-.05,1.32-.94,2.18-2.63,2.18A2.52,2.52,0,0,1,167.4,28.1Z"/><path class="cls-1" d="M173.47,24a1,1,0,1,1,1,.92A.93.93,0,0,1,173.47,24Zm.09,1.42h1.79v5.23h-1.79Z"/><path class="cls-1" d="M176.18,28.1V28a2.69,2.69,0,0,1,2.87-2.74A2.65,2.65,0,0,1,181.9,28v.08A2.66,2.66,0,0,1,179,30.77,2.62,2.62,0,0,1,176.18,28.1Zm3.9,0V28c0-.88-.35-1.37-1-1.37s-1,.47-1,1.35v.08c0,.9.35,1.39,1,1.39S180.08,28.94,180.08,28.07Zm-1.2-4.91h1.8l-1.05,1.66h-1.28Z"/><path class="cls-1" d="M182.68,25.42h1.79v.84a1.85,1.85,0,0,1,1.72-1c1,0,1.71.63,1.71,2v3.4h-1.79v-3c0-.59-.23-.88-.75-.88s-.89.32-.89,1v2.93h-1.79Z"/><path class="cls-1" d="M0,.65v30H30V.65ZM28,19.19a.48.48,0,0,1-.48.48H20V21l7.51-.28a.48.48,0,0,1,.48.48.49.49,0,0,1-.45.52L20,22v1.31l7.47-.58a.47.47,0,0,1,.5.46.49.49,0,0,1-.43.53L20,24.32v1.83a.5.5,0,0,1-1,0V24.4L11,25v3.13a.5.5,0,0,1-1,0v-3l-7.47.58a.49.49,0,0,1-.5-.47v0a.5.5,0,0,1,.43-.51L10,24.1V22.37l-7.51.28A.48.48,0,0,1,2,22.16v0a.48.48,0,0,1,.45-.49L10,21.37v-1.7H2.48A.48.48,0,0,1,2,19.19v0a.49.49,0,0,1,.48-.48H10V17L2.46,16.7A.49.49,0,0,1,2,16.2v0a.47.47,0,0,1,.48-.48L10,16V14.24l-7.54-.58A.49.49,0,0,1,2,13.15v0a.47.47,0,0,1,.5-.46l7.47.58v-.6a4,4,0,0,1,8-.47c0,.15,0,.47-.46.47S17,12.4,17,12.27a3,3,0,0,0-6,.38v.68L19,14V7.33L13.65,5.21,9,8.83a.51.51,0,0,1-.31.11.47.47,0,0,1-.39-.2A.49.49,0,0,1,8.36,8l5.13-4v0L20,6.65V14l7.54.58a.5.5,0,0,1,.43.53.47.47,0,0,1-.5.46L20,15v1.32l7.54.27a.49.49,0,0,1,.45.52.48.48,0,0,1-.48.48L20,17.34v1.33h7.52a.49.49,0,0,1,.48.48ZM11,24l8-.62V22l-8,.3Zm0-2.68,8-.3V19.67H11Zm0-2.67h8V17.3L11,17ZM11,16l8,.29V14.94l-8-.62Z"/></g></g></svg>